<?xml version="1.0" standalone="no"?>
<!DOCTYPE svg PUBLIC "-//W3C//DTD SVG 20010904//EN"
 "http://www.w3.org/TR/2001/REC-SVG-20010904/DTD/svg10.dtd">
<svg version="1.0" xmlns="http://www.w3.org/2000/svg"
 width="1200.000000pt" height="1148.000000pt" viewBox="0 0 1200.000000 1148.000000"
 preserveAspectRatio="xMidYMid meet">

<g transform="translate(0.000000,1148.000000) scale(0.100000,-0.100000)"
fill="#000000" stroke="none">
<path d="M7270 11303 c0 -49 30 -156 55 -199 13 -23 41 -56 62 -74 73 -65 155
-90 438 -135 102 -16 193 -50 232 -87 41 -39 29 -91 -38 -163 -19 -20 -27 -37
-23 -50 5 -18 12 -20 93 -17 104 4 184 -14 282 -64 l69 -34 224 0 225 0 3 -32
c4 -46 28 -47 99 -3 32 20 76 39 97 42 20 3 42 10 48 14 19 15 97 40 153 49
65 11 137 -2 168 -32 l22 -20 34 26 c19 14 58 39 87 55 l53 29 -27 27 c-53 53
-130 67 -246 45 -49 -9 -59 -7 -141 26 -144 57 -207 66 -400 58 -148 -6 -171
-5 -194 10 -14 9 -25 22 -25 30 0 8 -18 15 -49 19 -56 7 -110 32 -191 88 -79
55 -235 116 -317 124 -264 26 -458 91 -672 224 -123 77 -121 76 -121 44z"/>
<path d="M10095 10453 c-392 -52 -570 -85 -738 -139 -124 -40 -208 -79 -279
-130 -26 -18 -178 -141 -338 -274 -160 -132 -313 -251 -340 -265 -91 -46 -197
-48 -303 -6 -30 12 -290 63 -622 121 l-570 101 -110 55 c-160 79 -269 105
-473 111 -172 6 -281 -4 -430 -38 -119 -27 -152 -49 -152 -98 l0 -28 113 -6
c61 -3 149 -15 194 -26 225 -55 530 -210 805 -407 107 -77 112 -80 168 -88 24
-4 146 -32 270 -62 124 -31 286 -68 360 -83 l135 -27 0 -35 0 -34 -100 -22
c-129 -28 -207 -56 -267 -94 -53 -35 -101 -86 -95 -103 6 -20 57 -37 149 -52
80 -13 127 -26 178 -48 10 -4 44 15 95 55 241 186 478 291 708 315 l57 5 72
87 c203 248 336 341 513 360 58 7 60 8 63 39 3 31 2 32 -50 42 -30 7 -68 20
-86 31 -69 42 -34 87 172 222 197 130 556 296 921 428 50 18 91 34 93 35 1 1
-3 16 -9 33 -12 34 -21 36 -104 25z"/>
<path d="M5407 8844 c-254 -37 -587 -155 -587 -209 0 -24 61 -35 240 -45 242
-13 279 -17 409 -46 258 -58 622 -213 738 -315 132 -116 331 -253 500 -345
l73 -39 0 -52 0 -53 -58 0 c-46 0 -63 -4 -77 -20 -17 -19 -31 -20 -271 -20
l-253 0 -9 -32 c-8 -32 -7 -34 50 -67 60 -36 164 -131 236 -215 l42 -49 52 45
c185 156 410 242 698 268 74 7 167 9 206 6 l71 -7 133 67 c74 36 220 104 324
149 105 46 213 93 240 105 l50 23 -27 13 c-49 26 -170 44 -356 54 -411 22
-473 35 -479 96 -3 31 -1 33 65 58 169 64 300 81 561 73 108 -3 265 -15 347
-26 409 -56 479 -63 615 -58 161 5 223 24 285 88 l40 40 -25 21 c-41 34 -278
145 -379 177 -193 63 -290 76 -556 75 -221 0 -250 -2 -375 -28 -156 -32 -379
-104 -530 -171 -199 -89 -299 -113 -390 -94 -43 9 -64 23 -130 84 -264 248
-574 395 -941 449 -132 20 -396 19 -532 0z"/>
<path d="M4575 7334 c-140 -19 -193 -29 -280 -51 -134 -35 -299 -102 -416
-170 l-97 -56 -95 -196 c-53 -107 -95 -197 -93 -198 1 -1 38 6 82 16 138 34
341 71 502 93 210 28 599 31 772 5 155 -23 309 -59 427 -99 l98 -33 3 -51 3
-51 -80 -59 c-44 -33 -80 -64 -81 -70 0 -27 42 -46 132 -59 51 -7 120 -22 152
-34 33 -13 95 -25 141 -28 75 -5 86 -4 114 16 31 22 32 22 79 4 36 -14 72 -18
157 -17 127 1 181 15 457 118 95 36 209 74 252 85 86 23 226 28 270 11 14 -5
26 -7 26 -3 0 3 -23 46 -51 95 -28 49 -50 91 -48 92 9 8 193 45 269 55 399 48
852 -3 1280 -144 140 -46 195 -57 195 -40 0 6 -72 142 -160 302 l-160 293
-120 39 c-441 145 -973 133 -1502 -33 -146 -46 -251 -86 -410 -158 l-133 -60
-152 27 c-146 26 -160 30 -318 105 -380 180 -653 249 -1000 255 -102 2 -198 1
-215 -1z"/>
<path d="M4330 6283 c-177 -14 -424 -57 -810 -143 -297 -66 -519 -110 -553
-110 -12 0 -28 -4 -35 -8 -21 -14 -273 -637 -258 -640 7 -2 192 43 412 99 988
252 1199 292 1544 292 316 1 516 -51 715 -186 128 -87 264 -255 340 -421 l36
-76 262 0 263 0 39 82 c162 336 401 517 768 584 112 21 403 23 552 5 239 -29
552 -94 945 -196 382 -99 742 -186 747 -181 4 4 -240 618 -251 633 -1 2 -65
14 -142 28 -76 14 -281 57 -454 95 -528 115 -682 138 -965 147 -221 6 -353 -4
-530 -41 -278 -59 -547 -188 -778 -373 -127 -102 -185 -122 -260 -89 -18 8
-81 52 -140 99 -292 228 -607 357 -969 396 -89 10 -372 12 -478 4z"/>
<path d="M4135 5279 c-243 -23 -501 -74 -835 -164 -540 -146 -678 -175 -847
-178 l-107 -2 -167 -288 c-104 -179 -161 -286 -151 -283 182 53 735 202 917
246 680 166 1124 204 1510 130 327 -64 642 -235 755 -410 29 -46 39 -80 21
-80 -4 0 -39 14 -77 31 -113 52 -296 107 -442 135 -238 45 -591 45 -912 -2
-343 -49 -824 -158 -1200 -271 -444 -133 -616 -173 -800 -186 l-34 -2 -146
-287 -145 -286 -95 1 c-114 1 -177 -17 -252 -73 -90 -68 -133 -132 -251 -373
-87 -176 -115 -226 -127 -221 -8 4 -52 9 -96 12 -73 4 -88 2 -138 -21 -116
-53 -195 -164 -342 -477 -51 -110 -109 -225 -129 -255 -19 -31 -35 -57 -35
-60 0 -2 1154 -2 2565 2 l2565 6 0 -116 0 -117 835 0 835 0 0 117 0 116 2574
-6 2574 -6 -35 52 c-20 29 -72 126 -115 217 -157 327 -190 382 -277 463 -77
72 -125 90 -225 84 -44 -3 -90 -7 -101 -9 -16 -2 -32 24 -100 167 -106 225
-145 293 -210 363 -94 101 -220 150 -356 135 l-58 -6 -145 292 -146 291 -44 0
c-130 0 -379 58 -806 189 -427 130 -979 247 -1352 286 -171 17 -446 20 -586 4
-198 -21 -431 -83 -589 -155 -71 -32 -103 -41 -103 -29 0 15 43 87 78 131 69
87 291 223 470 288 231 83 518 117 817 96 390 -27 793 -110 1540 -319 176 -49
321 -88 323 -87 1 2 -72 131 -163 288 l-165 285 -103 1 c-167 1 -283 25 -847
177 -476 128 -733 168 -1075 169 -243 1 -331 -7 -522 -50 -361 -80 -721 -267
-1015 -526 l-68 -60 -102 87 c-502 421 -1093 605 -1743 544z m485 -1477 c230
-41 426 -122 545 -225 l37 -32 -229 -1 c-311 -2 -464 -16 -1413 -123 -396 -45
-610 -61 -828 -61 -266 0 -416 24 -533 86 l-34 18 30 8 c83 22 796 185 975
223 304 65 486 93 835 129 22 2 144 3 270 1 177 -2 256 -8 345 -23z m3520 3
c302 -36 609 -96 1195 -233 187 -44 366 -85 399 -92 l59 -12 -29 -19 c-122
-81 -480 -110 -916 -74 -186 16 -258 24 -883 94 -489 55 -714 73 -977 74 -126
1 -228 4 -228 6 0 6 30 29 107 80 136 92 334 158 556 186 143 18 528 13 717
-10z"/>
<path d="M210 1327 c-106 -31 -157 -73 -186 -154 -20 -57 -17 -104 11 -160 44
-87 131 -131 275 -140 94 -6 192 12 260 47 l40 20 0 85 0 85 -135 0 -135 0 0
-25 c0 -25 0 -25 96 -25 l95 0 -3 -47 c-3 -47 -4 -48 -51 -65 -189 -70 -377 8
-377 156 1 112 74 176 212 184 95 6 156 -14 193 -62 20 -27 30 -32 55 -28 41
6 43 14 17 53 -37 57 -103 82 -221 86 -63 2 -118 -2 -146 -10z"/>
<path d="M3783 1326 c-125 -41 -187 -113 -187 -220 1 -69 16 -105 66 -153 59
-57 120 -77 233 -78 145 0 212 26 278 107 33 41 46 113 33 181 -9 50 -75 120
-138 147 -66 29 -219 38 -285 16z m218 -51 c126 -45 168 -190 83 -285 -102
-113 -335 -85 -390 46 -29 69 -4 174 50 209 69 45 177 58 257 30z"/>
<path d="M7623 1326 c-107 -35 -172 -99 -187 -188 -16 -91 47 -195 146 -239
45 -20 69 -24 163 -24 130 0 192 22 250 87 45 49 56 79 56 144 0 93 -48 162
-146 205 -62 28 -216 36 -282 15z m212 -47 c61 -17 121 -83 130 -143 19 -124
-75 -216 -219 -216 -134 0 -226 77 -226 187 1 50 32 117 64 138 65 43 168 57
251 34z"/>
<path d="M10970 1325 c-75 -21 -124 -56 -156 -111 -75 -127 -16 -264 136 -320
105 -38 289 -26 390 26 l40 20 0 85 0 85 -135 0 -135 0 0 -25 c0 -25 0 -25 96
-25 l95 0 -3 -47 c-3 -47 -4 -48 -53 -67 -35 -14 -76 -20 -135 -20 -73 -1 -93
3 -141 26 -74 37 -103 86 -97 167 8 108 74 161 211 169 94 6 155 -14 192 -62
20 -27 30 -32 55 -28 41 6 43 14 17 53 -38 57 -102 82 -220 86 -70 2 -119 -2
-157 -12z"/>
<path d="M798 1111 c-65 -120 -118 -222 -118 -225 0 -4 19 -6 42 -4 41 3 43 5
77 71 l36 67 135 -2 134 -3 39 -67 c39 -68 39 -68 83 -68 24 0 44 2 44 5 0 3
-57 105 -127 225 l-128 220 -50 0 -50 0 -117 -219z m272 -38 c0 -10 -28 -13
-106 -13 -61 0 -104 4 -102 9 2 5 25 54 53 109 l50 100 52 -97 c29 -53 53
-102 53 -108z"/>
<path d="M1360 1105 l0 -225 45 0 45 0 0 225 0 225 -45 0 -45 0 0 -225z"/>
<path d="M1600 1105 l0 -225 40 0 40 0 0 176 c0 97 4 174 8 172 5 -1 82 -81
172 -175 163 -172 164 -173 207 -173 l43 0 0 225 0 225 -40 0 -40 0 -2 -175
-3 -176 -165 176 -165 175 -47 0 -48 0 0 -225z"/>
<path d="M2860 1105 l0 -225 40 0 40 0 0 193 1 192 94 -192 94 -193 38 0 38 0
95 188 95 187 3 -187 2 -188 40 0 40 0 0 225 0 225 -59 0 -60 0 -92 -190 c-51
-104 -95 -190 -98 -190 -3 1 -45 85 -93 188 l-87 187 -66 3 -65 3 0 -226z"/>
<path d="M4330 1106 l0 -226 40 0 40 0 0 100 0 100 79 0 c44 0 92 -5 108 -11
15 -6 66 -51 113 -100 84 -88 86 -89 134 -89 26 0 46 4 44 10 -7 22 -153 162
-187 180 -26 14 -31 19 -16 20 77 2 165 63 165 115 0 37 -26 78 -64 101 -27
17 -57 19 -243 22 l-213 3 0 -225z m334 174 c32 -5 67 -17 78 -27 27 -24 20
-71 -15 -97 -26 -19 -42 -21 -170 -21 l-142 0 -3 64 c-2 35 -1 70 2 77 6 17
159 19 250 4z"/>
<path d="M4990 1105 l0 -225 240 0 240 0 0 25 0 25 -200 0 -201 0 3 78 3 77
178 3 177 2 0 25 0 25 -180 0 -180 0 0 70 0 70 195 0 195 0 0 25 0 25 -235 0
-235 0 0 -225z"/>
<path d="M6190 1105 l0 -225 40 0 39 0 3 77 3 77 55 38 54 39 116 -116 115
-115 54 0 54 0 -136 131 c-75 72 -137 134 -137 138 0 4 56 44 125 91 69 46
125 85 125 87 0 2 -24 3 -53 3 -51 0 -58 -3 -210 -110 -86 -60 -159 -110 -162
-110 -3 0 -5 50 -5 110 l0 110 -40 0 -40 0 0 -225z"/>
<path d="M6800 1105 l0 -225 40 0 40 0 0 175 c0 96 3 175 8 174 4 0 81 -79
171 -175 164 -173 164 -174 208 -174 l43 0 0 225 0 225 -40 0 -40 0 -2 -176
-3 -176 -165 176 -165 176 -47 0 -48 0 0 -225z"/>
<path d="M8131 1278 c12 -29 47 -123 79 -208 32 -85 61 -163 65 -173 6 -14 17
-17 53 -15 l45 3 75 192 c42 105 79 190 82 188 3 -2 39 -90 80 -195 l75 -191
43 3 43 3 84 215 c47 118 85 219 85 223 0 5 -19 7 -41 5 l-41 -3 -64 -184
c-35 -101 -65 -185 -68 -188 -2 -2 -7 11 -11 29 -4 18 -35 104 -68 190 l-62
158 -55 0 -55 0 -75 -190 c-41 -104 -75 -188 -76 -187 -2 1 -30 87 -64 190
l-61 187 -44 0 -45 0 21 -52z"/>
<path d="M9030 1105 l0 -225 200 0 200 0 0 25 0 25 -160 0 -160 0 0 200 0 200
-40 0 -40 0 0 -225z"/>
<path d="M9540 1105 l0 -225 240 0 240 0 0 25 0 25 -200 0 -200 0 0 80 0 80
180 0 180 0 0 25 0 25 -180 0 -180 0 0 70 0 70 195 0 195 0 0 25 0 25 -235 0
-235 0 0 -225z"/>
<path d="M10140 1105 l0 -227 188 4 187 3 55 31 c44 25 61 42 83 85 25 47 28
63 25 121 -5 85 -40 140 -113 177 -47 25 -58 26 -237 29 l-188 3 0 -226z m370
152 c56 -29 80 -74 80 -150 0 -90 -38 -145 -115 -166 -22 -6 -86 -11 -142 -11
l-103 0 0 175 0 175 118 0 c104 0 124 -3 162 -23z"/>
<path d="M11510 1105 l0 -225 245 0 245 0 0 25 0 25 -200 0 -200 0 0 80 0 80
180 0 180 0 0 25 0 25 -180 0 -180 0 0 70 0 70 190 0 190 0 0 25 0 25 -235 0
-235 0 0 -225z"/>
<path d="M38 614 c-5 -4 -8 -108 -8 -231 l0 -223 45 0 45 0 0 100 0 100 79 0
c44 0 92 -5 106 -10 15 -6 66 -51 114 -101 l86 -90 49 3 49 3 -78 83 c-43 46
-94 91 -113 101 l-35 18 52 13 c74 18 121 60 121 110 0 43 -27 82 -73 107 -26
14 -70 18 -232 21 -110 2 -203 1 -207 -4z m372 -57 c19 -7 41 -24 49 -38 13
-24 13 -29 -3 -53 -25 -39 -54 -46 -203 -53 l-133 -6 0 81 0 82 128 -1 c71 0
142 -5 162 -12z"/>
<path d="M690 390 l0 -230 245 0 245 0 0 25 0 25 -200 0 -200 0 0 80 0 80 180
0 180 0 0 25 0 25 -180 0 -180 0 0 75 0 75 190 0 190 0 0 25 0 25 -235 0 -235
0 0 -230z"/>
<path d="M1467 598 c-15 -24 -193 -351 -221 -405 l-17 -33 45 0 44 0 36 70 37
70 137 0 137 0 36 -68 c35 -67 35 -67 82 -70 26 -2 47 -1 47 3 0 3 -59 106
-131 230 l-131 225 -44 0 c-34 0 -46 -5 -57 -22z m163 -243 c0 -3 -47 -5 -105
-5 -58 0 -105 2 -105 4 0 2 23 50 52 105 l51 101 54 -99 c29 -55 53 -103 53
-106z"/>
<path d="M2047 604 c-66 -21 -141 -94 -157 -154 -16 -59 0 -140 38 -194 90
-129 371 -140 483 -19 21 23 39 49 39 56 0 19 -73 32 -79 14 -2 -6 -20 -28
-40 -48 -66 -67 -196 -75 -289 -19 -68 42 -92 157 -49 240 30 60 90 91 178 92
84 2 132 -15 168 -58 26 -32 32 -35 65 -29 20 4 36 11 36 15 0 18 -55 72 -94
92 -54 29 -226 36 -299 12z"/>
<path d="M2570 390 l0 -230 40 0 40 0 0 110 0 110 170 0 170 0 0 -110 0 -110
45 0 45 0 0 230 0 230 -45 0 -45 0 0 -95 0 -95 -170 0 -170 0 0 95 0 95 -40 0
-40 0 0 -230z"/>
<path d="M3633 606 c-81 -26 -138 -75 -164 -143 -17 -46 -13 -127 11 -172 69
-137 321 -180 529 -91 l51 22 0 84 0 84 -140 0 -140 0 0 -25 c0 -25 0 -25 96
-25 l95 0 -3 -47 -3 -46 -55 -19 c-43 -15 -75 -19 -145 -16 -115 5 -169 31
-202 98 -29 55 -29 101 -2 157 35 72 105 106 219 106 79 -1 143 -24 171 -64
20 -28 41 -35 73 -23 25 10 19 30 -19 68 -21 22 -55 41 -87 51 -63 18 -226 19
-285 1z"/>
<path d="M4190 391 l0 -231 40 0 40 0 0 100 0 100 86 0 c106 0 125 -10 224
-120 71 -79 73 -80 121 -80 27 0 49 3 49 8 0 15 -159 169 -191 185 l-34 16 41
7 c64 10 116 44 132 86 12 32 12 40 -3 72 -12 24 -32 45 -59 58 -37 20 -61 22
-243 26 l-203 4 0 -231z m393 156 c15 -9 30 -29 33 -43 16 -63 -85 -99 -263
-92 l-78 3 -3 78 -3 79 144 -4 c116 -2 148 -6 170 -21z"/>
<path d="M4850 390 l0 -230 240 0 240 0 0 25 0 25 -200 0 -200 0 0 80 0 80
180 0 180 0 0 25 0 25 -180 0 -180 0 0 75 0 75 190 0 190 0 0 25 0 25 -230 0
-230 0 0 -230z"/>
<path d="M5627 613 c-2 -4 -46 -84 -97 -178 -51 -93 -106 -194 -122 -222 l-29
-53 45 0 46 0 35 70 35 70 138 0 138 0 38 -70 37 -70 49 0 48 0 -132 228 -132
227 -46 3 c-25 2 -48 -1 -51 -5z m54 -261 c-57 -1 -105 -1 -106 0 -2 2 20 51
48 109 l52 106 55 -106 55 -106 -104 -3z"/>
<path d="M5940 595 c0 -24 1 -24 108 -27 l107 -3 3 -202 2 -203 40 0 40 0 2
203 3 202 108 3 c106 3 107 3 107 27 l0 25 -260 0 -260 0 0 -25z"/>
<path d="M6550 390 l0 -230 245 0 245 0 0 25 0 25 -202 2 -203 3 -3 78 -3 77
186 0 185 0 0 25 0 25 -182 2 -183 3 0 70 0 70 193 3 192 2 0 25 0 25 -235 0
-235 0 0 -230z"/>
<path d="M7160 390 l0 -230 40 0 40 0 0 100 0 100 86 0 c106 0 125 -10 227
-121 l73 -80 52 3 52 3 -83 85 c-45 47 -97 93 -115 102 l-34 15 38 8 c59 11
112 42 130 77 13 26 14 38 5 69 -24 80 -90 99 -342 99 l-169 0 0 -230z m394
157 c33 -22 40 -39 32 -72 -11 -44 -54 -57 -205 -58 l-136 -2 -3 78 -3 79 144
-4 c117 -2 148 -6 171 -21z"/>
<path d="M8070 390 l0 -230 40 0 39 0 3 108 3 107 170 0 170 0 3 -107 3 -108
39 0 40 0 0 230 0 230 -40 0 -40 0 0 -95 0 -95 -175 0 -175 0 0 95 0 95 -40 0
-40 0 0 -230z"/>
<path d="M8730 390 l0 -230 240 0 240 0 0 25 0 25 -200 0 -200 0 0 80 0 80
180 0 180 0 0 25 0 25 -180 0 -181 0 3 73 3 72 193 3 192 2 0 25 0 25 -235 0
-235 0 0 -230z"/>
<path d="M9350 390 l0 -230 40 0 40 0 0 230 0 230 -40 0 -40 0 0 -230z"/>
<path d="M9742 605 c-108 -33 -172 -117 -172 -223 0 -122 92 -201 262 -224 94
-12 193 2 286 42 l52 22 0 84 0 84 -140 0 -140 0 0 -25 c0 -25 0 -25 96 -25
l95 0 -3 -47 c-3 -48 -3 -48 -53 -66 -37 -13 -74 -17 -145 -14 -83 2 -102 6
-143 30 -133 79 -103 275 49 317 57 16 167 16 208 0 16 -6 45 -27 63 -46 30
-32 38 -35 69 -30 l35 7 -18 30 c-41 69 -120 99 -262 98 -53 0 -115 -6 -139
-14z"/>
<path d="M10300 390 l0 -230 40 0 39 0 3 108 3 107 168 3 167 2 0 -110 0 -110
45 0 45 0 0 231 0 230 -42 -3 -43 -3 -3 -92 -3 -93 -169 0 -170 0 0 95 0 95
-40 0 -40 0 0 -230z"/>
<path d="M10910 595 l0 -25 105 0 105 0 0 -205 0 -205 40 0 40 0 2 203 3 202
108 3 c106 3 107 3 107 27 l0 25 -255 0 -255 0 0 -25z"/>
<path d="M11606 605 c-59 -21 -96 -61 -96 -105 0 -67 52 -96 231 -130 126 -25
164 -40 174 -70 17 -54 -47 -90 -163 -90 -91 0 -158 27 -180 73 -11 23 -19 27
-53 27 -43 0 -46 -7 -24 -50 36 -69 118 -103 250 -104 115 -1 169 15 218 65
36 35 39 43 34 77 -7 44 -49 83 -107 101 -21 6 -86 20 -145 31 -125 22 -158
39 -153 78 5 41 56 62 148 62 81 0 128 -19 150 -59 8 -16 21 -21 51 -21 37 0
40 2 34 23 -12 36 -55 75 -103 92 -57 19 -212 19 -266 0z"/>
</g>
</svg>
